<svg id="visual" viewBox="0 0 900 600" width="900" height="600" xmlns="http://www.w3.org/2000/svg" xmlns:xlink="http://www.w3.org/1999/xlink" version="1.1"><path d="M0 115L82 115L82 109L164 109L164 133L245 133L245 163L327 163L327 85L409 85L409 103L491 103L491 91L573 91L573 151L655 151L655 103L736 103L736 127L818 127L818 121L900 121L900 115L900 0L900 0L818 0L818 0L736 0L736 0L655 0L655 0L573 0L573 0L491 0L491 0L409 0L409 0L327 0L327 0L245 0L245 0L164 0L164 0L82 0L82 0L0 0Z" fill="#fa7268"></path><path d="M0 211L82 211L82 295L164 295L164 343L245 343L245 385L327 385L327 211L409 211L409 271L491 271L491 361L573 361L573 289L655 289L655 235L736 235L736 337L818 337L818 325L900 325L900 313L900 113L900 119L818 119L818 125L736 125L736 101L655 101L655 149L573 149L573 89L491 89L491 101L409 101L409 83L327 83L327 161L245 161L245 131L164 131L164 107L82 107L82 113L0 113Z" fill="#ea5e66"></path><path d="M0 325L82 325L82 415L164 415L164 403L245 403L245 457L327 457L327 307L409 307L409 391L491 391L491 427L573 427L573 337L655 337L655 289L736 289L736 421L818 421L818 445L900 445L900 373L900 311L900 323L818 323L818 335L736 335L736 233L655 233L655 287L573 287L573 359L491 359L491 269L409 269L409 209L327 209L327 383L245 383L245 341L164 341L164 293L82 293L82 209L0 209Z" fill="#d84a64"></path><path d="M0 397L82 397L82 463L164 463L164 439L245 439L245 523L327 523L327 379L409 379L409 481L491 481L491 469L573 469L573 403L655 403L655 349L736 349L736 505L818 505L818 505L900 505L900 439L900 371L900 443L818 443L818 419L736 419L736 287L655 287L655 335L573 335L573 425L491 425L491 389L409 389L409 305L327 305L327 455L245 455L245 401L164 401L164 413L82 413L82 323L0 323Z" fill="#c53762"></path><path d="M0 601L82 601L82 601L164 601L164 601L245 601L245 601L327 601L327 601L409 601L409 601L491 601L491 601L573 601L573 601L655 601L655 601L736 601L736 601L818 601L818 601L900 601L900 601L900 437L900 503L818 503L818 503L736 503L736 347L655 347L655 401L573 401L573 467L491 467L491 479L409 479L409 377L327 377L327 521L245 521L245 437L164 437L164 461L82 461L82 395L0 395Z" fill="#b0235f"></path></svg>