<svg id="visual" viewBox="0 0 900 600" width="900" height="600" xmlns="http://www.w3.org/2000/svg" xmlns:xlink="http://www.w3.org/1999/xlink" version="1.1"><path d="M0 37L13.7 52C27.3 67 54.7 97 82 102C109.3 107 136.7 87 163.8 84C191 81 218 95 245.2 99C272.3 103 299.7 97 327 96C354.3 95 381.7 99 409 95C436.3 91 463.7 79 491 77C518.3 75 545.7 83 573 81C600.3 79 627.7 67 654.8 72C682 77 709 99 736.2 99C763.3 99 790.7 77 818 70C845.3 63 872.7 71 886.3 75L900 79L900 0L886.3 0C872.7 0 845.3 0 818 0C790.7 0 763.3 0 736.2 0C709 0 682 0 654.8 0C627.7 0 600.3 0 573 0C545.7 0 518.3 0 491 0C463.7 0 436.3 0 409 0C381.7 0 354.3 0 327 0C299.7 0 272.3 0 245.2 0C218 0 191 0 163.8 0C136.7 0 109.3 0 82 0C54.7 0 27.3 0 13.7 0L0 0Z" fill="#004cbb"></path><path d="M0 235L13.7 233C27.3 231 54.7 227 82 232C109.3 237 136.7 251 163.8 246C191 241 218 217 245.2 210C272.3 203 299.7 213 327 234C354.3 255 381.7 287 409 285C436.3 283 463.7 247 491 231C518.3 215 545.7 219 573 214C600.3 209 627.7 195 654.8 219C682 243 709 305 736.2 310C763.3 315 790.7 263 818 249C845.3 235 872.7 259 886.3 271L900 283L900 77L886.3 73C872.7 69 845.3 61 818 68C790.7 75 763.3 97 736.2 97C709 97 682 75 654.8 70C627.7 65 600.3 77 573 79C545.7 81 518.3 73 491 75C463.7 77 436.3 89 409 93C381.7 97 354.3 93 327 94C299.7 95 272.3 101 245.2 97C218 93 191 79 163.8 82C136.7 85 109.3 105 82 100C54.7 95 27.3 65 13.7 50L0 35Z" fill="#0059dd"></path><path d="M0 403L13.7 411C27.3 419 54.7 435 82 430C109.3 425 136.7 399 163.8 389C191 379 218 385 245.2 404C272.3 423 299.7 455 327 460C354.3 465 381.7 443 409 421C436.3 399 463.7 377 491 371C518.3 365 545.7 375 573 391C600.3 407 627.7 429 654.8 446C682 463 709 475 736.2 463C763.3 451 790.7 415 818 396C845.3 377 872.7 375 886.3 374L900 373L900 281L886.3 269C872.7 257 845.3 233 818 247C790.7 261 763.3 313 736.2 308C709 303 682 241 654.8 217C627.7 193 600.3 207 573 212C545.7 217 518.3 213 491 229C463.7 245 436.3 281 409 283C381.7 285 354.3 253 327 232C299.7 211 272.3 201 245.2 208C218 215 191 239 163.8 244C136.7 249 109.3 235 82 230C54.7 225 27.3 229 13.7 231L0 233Z" fill="#0066ff"></path><path d="M0 499L13.7 509C27.3 519 54.7 539 82 544C109.3 549 136.7 539 163.8 530C191 521 218 513 245.2 515C272.3 517 299.7 529 327 533C354.3 537 381.7 533 409 527C436.3 521 463.7 513 491 512C518.3 511 545.7 517 573 520C600.3 523 627.7 523 654.8 530C682 537 709 551 736.2 547C763.3 543 790.7 521 818 510C845.3 499 872.7 499 886.3 499L900 499L900 371L886.3 372C872.7 373 845.3 375 818 394C790.7 413 763.3 449 736.2 461C709 473 682 461 654.8 444C627.7 427 600.3 405 573 389C545.7 373 518.3 363 491 369C463.7 375 436.3 397 409 419C381.7 441 354.3 463 327 458C299.7 453 272.3 421 245.2 402C218 383 191 377 163.8 387C136.7 397 109.3 423 82 428C54.7 433 27.3 417 13.7 409L0 401Z" fill="#3c80ff"></path><path d="M0 601L13.7 601C27.3 601 54.7 601 82 601C109.3 601 136.7 601 163.8 601C191 601 218 601 245.2 601C272.3 601 299.7 601 327 601C354.3 601 381.7 601 409 601C436.3 601 463.7 601 491 601C518.3 601 545.7 601 573 601C600.3 601 627.7 601 654.8 601C682 601 709 601 736.2 601C763.3 601 790.7 601 818 601C845.3 601 872.7 601 886.3 601L900 601L900 497L886.3 497C872.7 497 845.3 497 818 508C790.7 519 763.3 541 736.2 545C709 549 682 535 654.8 528C627.7 521 600.3 521 573 518C545.7 515 518.3 509 491 510C463.7 511 436.3 519 409 525C381.7 531 354.3 535 327 531C299.7 527 272.3 515 245.2 513C218 511 191 519 163.8 528C136.7 537 109.3 547 82 542C54.7 537 27.3 517 13.7 507L0 497Z" fill="#6198ff"></path></svg>